<?xml version="1.0" encoding="UTF-8" standalone="no"?>
<svg xmlns:rdf="http://www.w3.org/1999/02/22-rdf-syntax-ns#" xmlns="http://www.w3.org/2000/svg" height="169.33mm" width="169.33mm" version="1.1" xmlns:cc="http://creativecommons.org/ns#" xmlns:xlink="http://www.w3.org/1999/xlink" viewBox="0 0 599.99998 599.99998" xmlns:dc="http://purl.org/dc/elements/1.1/">
<defs>
<clipPath id="SVGID_100_">
<use xlink:href="#SVGID_99_" height="100%" width="100%" y="0" x="0" overflow="visible"/>
</clipPath>
<radialGradient id="SVGID_101_" gradientUnits="userSpaceOnUse" cx="50.15" cy="127.5" r="40">
<stop stop-color="#643C5A" stop-opacity="0" offset=".6667"/>
<stop stop-color="#613B59" stop-opacity=".75" offset="1"/>
</radialGradient>
<radialGradient id="SVGID_102_" gradientUnits="userSpaceOnUse" cy="107.03" cx="50.15" gradientTransform="matrix(1 0 0 .9502 0 25.806)" r="29.008">
<stop stop-color="#fff" stop-opacity=".25" offset=".6667"/>
<stop stop-color="#fff" stop-opacity=".8955" offset=".9536"/>
<stop stop-color="#fff" offset="1"/>
</radialGradient>
<circle id="SVGID_99_" cx="50.15" cy="127.5" r="40"/>
</defs>
<g transform="translate(-268.57 110.49)">
<g transform="matrix(7.5 0 0 7.5 192.45 -766.76)">
<clipPath>
<use xlink:href="#SVGID_99_" height="100%" width="100%" y="0" x="0" overflow="visible"/>
</clipPath>
<g clip-path="url(#SVGID_100_)">
<path d="m16.347 104.88c-10.183 23.361 11.555 38.37 21.824 37.328 7.691-0.783 12.317-4.895 13.447-9.045 1.128-4.15-1.467-5.661-1.467-5.661s3.368-1.924 6.915 2.953c3.152 4.337 1.977 12.362-1.183 16.776-3.417 4.773-11.826 10.303-22.222 9.701-10.878-0.63-17.927-4.75-24.444-21.42l-6.217-23.94 4.862-9.62" fill="#dee0ff"/>
</g>
<g clip-path="url(#SVGID_100_)">
<path d="m47.46 168.09c25.324-2.862 27.453-29.192 21.415-37.564-4.522-6.269-10.397-8.219-14.558-7.122-4.158 1.098-4.167 4.102-4.167 4.102s-3.351-1.955-0.9-7.465c2.18-4.898 9.718-7.894 15.121-7.364 5.841 0.572 14.835 5.089 19.512 14.394 4.894 9.736 4.846 17.901-6.327 31.878l-17.631 17.35-10.758 0.6" fill="#dee0ff"/>
</g>
<g clip-path="url(#SVGID_100_)">
<path d="m86.643 109.54c-15.14-20.5-39.007-9.179-43.239 0.236-3.169 7.051-1.92 13.113 1.11 16.168 3.031 3.054 5.636 1.559 5.636 1.559s-0.017 3.879-6.015 4.512c-5.332 0.562-11.696-4.468-13.938-9.413-2.425-5.345-3.009-15.392 2.71-24.095 5.985-9.107 13.08-13.147 30.772-10.459l23.847 6.589 5.897 9.017" fill="#dee0ff"/>
</g>
<g clip-path="url(#SVGID_100_)">
<path d="m52.838 86.917c-25.322 2.862-27.452 29.191-21.414 37.563 4.523 6.27 10.397 8.221 14.558 7.123 4.158-1.099 4.168-4.102 4.168-4.102s3.35 1.955 0.899 7.465c-2.18 4.898-9.718 7.893-15.121 7.364-5.841-0.572-14.835-5.09-19.512-14.395-4.894-9.735-4.846-17.901 6.327-31.877l17.63-17.357 10.759-0.597" stroke="#de0016" stroke-miterlimit="10" fill="#fc1f24"/>
</g>
<g clip-path="url(#SVGID_100_)">
<path d="m13.66 145.47c15.139 20.498 39.005 9.178 43.236-0.237 3.168-7.051 1.921-13.114-1.109-16.168-3.031-3.053-5.636-1.559-5.636-1.559s0.018-3.88 6.015-4.512c5.332-0.561 11.695 4.47 13.938 9.414 2.425 5.344 3.009 15.391-2.71 24.095-5.984 9.104-13.08 13.147-30.771 10.458l-23.848-6.589-5.896-9.02" stroke="#de0016" stroke-miterlimit="10" fill="#fc1f24"/>
</g>
<g clip-path="url(#SVGID_100_)">
<path d="m83.954 150.12c10.182-23.36-11.555-38.37-21.824-37.32-7.691 0.783-12.318 4.893-13.448 9.045-1.128 4.15 1.468 5.661 1.468 5.661s-3.369 1.925-6.916-2.953c-3.151-4.338-1.977-12.362 1.184-16.778 3.417-4.771 11.825-10.3 22.222-9.7 10.877 0.631 17.926 4.754 24.443 21.42l6.217 23.946-4.863 9.616" stroke="#de0016" stroke-miterlimit="10" fill="#fc1f24"/>
</g>
<circle cy="127.5" cx="50.15" r="40" fill="url(#SVGID_101_)"/>
<ellipse opacity=".6" rx="29.008" ry="27.563" cy="127.5" cx="50.15" fill="url(#SVGID_102_)"/>
<g opacity=".75">
<path d="m79.159 127.5c0.031 7.589-2.762 15.218-8.003 21.005-2.61 2.887-5.833 5.278-9.442 6.91-1.808 0.8-3.697 1.447-5.642 1.857-1.954 0.403-3.915 0.614-5.938 0.632-1.949-0.019-3.968-0.229-5.903-0.632-1.945-0.41-3.834-1.057-5.642-1.857-3.609-1.631-6.832-4.022-9.442-6.91-5.241-5.787-8.034-13.416-8.003-21.005-0.031-7.589 2.762-15.218 8.003-21.005 2.611-2.887 5.834-5.278 9.442-6.909 1.809-0.8 3.697-1.447 5.642-1.857 1.954-0.403 3.915-0.614 5.938-0.632 1.949 0.019 3.967 0.229 5.903 0.632 1.945 0.41 3.833 1.057 5.642 1.857 3.608 1.631 6.832 4.022 9.442 6.909 5.24 5.787 8.033 13.416 8.003 21.005zc-0.019-1.899-0.22-3.794-0.606-5.65-0.392-1.855-1.012-3.655-1.777-5.378-1.561-3.439-3.849-6.508-6.607-8.99-5.542-4.983-12.773-7.622-20.036-7.594-7.192-0.028-14.475 2.611-20 7.594-2.759 2.482-5.046 5.551-6.607 8.99-0.765 1.723-1.385 3.522-1.777 5.378-0.386 1.856-0.587 3.751-0.606 5.65 0.019 1.899 0.22 3.794 0.606 5.65 0.392 1.855 1.013 3.655 1.777 5.378 1.561 3.439 3.849 6.508 6.607 8.99 5.542 4.982 12.773 7.621 20.036 7.593 7.191 0.028 14.475-2.611 20-7.593 2.759-2.482 5.046-5.551 6.607-8.99 0.764-1.723 1.385-3.522 1.777-5.378 0.385-1.856 0.587-3.751 0.606-5.65z" fill="#fff"/>
</g>
<ellipse rx="2.211" ry="1.561" stroke="#ffffb0" cy="98.407" cx="50.15" stroke-miterlimit="10" stroke-width=".5" fill="#fff"/>
<ellipse rx="2.211" ry="1.561" stroke="#ffffb0" cy="156.42" cx="50.15" stroke-miterlimit="10" stroke-width=".5" fill="#fff"/>
</g>
</g>
</svg>
